<svg width="43" height="43" viewBox="0 0 43 43" fill="none" xmlns="http://www.w3.org/2000/svg">
<path d="M14.7812 37.625C16.2655 37.625 17.4688 36.4218 17.4688 34.9375C17.4688 33.4532 16.2655 32.25 14.7812 32.25C13.297 32.25 12.0938 33.4532 12.0938 34.9375C12.0938 36.4218 13.297 37.625 14.7812 37.625Z" fill="#2C2C43"/>
<path d="M33.5938 37.625C35.078 37.625 36.2812 36.4218 36.2812 34.9375C36.2812 33.4532 35.078 32.25 33.5938 32.25C32.1095 32.25 30.9062 33.4532 30.9062 34.9375C30.9062 36.4218 32.1095 37.625 33.5938 37.625Z" fill="#2C2C43"/>
<path d="M38.6766 10.7686C38.4878 10.5377 38.2499 10.3517 37.9803 10.2242C37.7107 10.0966 37.4161 10.0307 37.1178 10.0312H11.5572L11.0423 7.11027C10.9874 6.79914 10.8247 6.51729 10.5826 6.31424C10.3406 6.1112 10.0347 5.99993 9.71875 6H4.34375C3.98737 6 3.64558 6.14157 3.39358 6.39358C3.14157 6.64558 3 6.98737 3 7.34375C3 7.70013 3.14157 8.04192 3.39358 8.29392C3.64558 8.54593 3.98737 8.6875 4.34375 8.6875H8.59168L12.4264 30.421C12.4813 30.7321 12.6441 31.014 12.8861 31.217C13.1282 31.4201 13.4341 31.5313 13.75 31.5312H35.25C35.6064 31.5312 35.9482 31.3897 36.2002 31.1377C36.4522 30.8857 36.5938 30.5439 36.5938 30.1875C36.5938 29.8311 36.4522 29.4893 36.2002 29.2373C35.9482 28.9853 35.6064 28.8438 35.25 28.8438H14.8771L14.4034 26.1562H34.6991C35.1651 26.1557 35.6166 25.9941 35.9771 25.6989C36.3377 25.4036 36.5852 24.9929 36.6777 24.5362L39.0965 12.4424C39.1548 12.1498 39.1473 11.8478 39.0747 11.5583C39.0021 11.2689 38.8661 10.9991 38.6766 10.7686Z" fill="#2C2C43"/>
</svg>
