<svg width="38" height="39" viewBox="0 0 38 39" fill="none" xmlns="http://www.w3.org/2000/svg">
<path d="M19 19.5C20.6441 19.5 22.2512 19.0125 23.6182 18.0991C24.9852 17.1857 26.0506 15.8875 26.6797 14.3686C27.3089 12.8496 27.4735 11.1783 27.1528 9.56582C26.832 7.95335 26.0403 6.4722 24.8778 5.30968C23.7153 4.14715 22.2342 3.35547 20.6217 3.03473C19.0092 2.71399 17.3379 2.8786 15.8189 3.50776C14.3 4.13691 13.0018 5.20234 12.0884 6.56933C11.175 7.93631 10.6875 9.54345 10.6875 11.1875C10.6875 13.3921 11.5633 15.5064 13.1222 17.0653C14.6811 18.6242 16.7954 19.5 19 19.5ZM19 21.875C13.8477 21.875 3.5625 25.0575 3.5625 31.375V36.125H34.4375V31.375C34.4375 25.0575 24.1523 21.875 19 21.875Z" fill="#2C2C43"/>
</svg>
